# xmcd
#
# Track frame offsets: 
#        150
#        7420
#        23454
#        41204
#        52015
#        77706
#        96934
#        107928
#        122067
#        134849
#        152573
#        164861
#        178598
#        201097
#
# Disc length: 2848 seconds
#
# Revision: 0
# Processed by: cddbd v1.5.2PL0 Copyright (c) Steve Scherf et al.
# Submitted via: ExactAudioCopy v0.99pb4
#
DISCID=ca0b1e0e
DTITLE=The Maynard Brothers Band - The Maynard Brothers Band
DYEAR=2001
DGENRE=Blues/Rock
TTITLE0=No Devils
TTITLE1=What To Do
TTITLE2=Don't Call It Love
TTITLE3=Baby, Don't Walk Away
TTITLE4=Call The Warden
TTITLE5=Redneck Express
TTITLE6=(You And I) Can Fall In Love
TTITLE7=She Sold My Monkey
TTITLE8=Down To The River
TTITLE9=By And By
TTITLE10=I Want To Be Your Man
TTITLE11=Do You Remember When
TTITLE12=Hung Over Again
TTITLE13=Better Things To Do
EXTD=
EXTT0=
EXTT1=
EXTT2=
EXTT3=
EXTT4=
EXTT5=
EXTT6=
EXTT7=
EXTT8=
EXTT9=
EXTT10=
EXTT11=
EXTT12=
EXTT13=
PLAYORDER=
